# xmcd CD database file
#
# Track frame offsets:
#	150
#	20075
#	39596
#	57906
#	75127
#	96048
#	121261
#	142064
#	167868
#	193665
#
# Disc length: 2752 seconds
#
# Revision: 0
# Processed by: cddbd v1.5.2PL0 Copyright (c) Steve Scherf et al.
# Submitted via: CDex 1.51
#
DISCID=800abe0a
DTITLE=Lala Njava - Malagasy Blues Song
DYEAR=2013
DGENRE=Blues
TTITLE0=Soa Gnanay
TTITLE1=Dinako
TTITLE2=Sweet Lullaby
TTITLE3=Pardon à l'Afrika
TTITLE4=Voatse
TTITLE5=Kabary Seza
TTITLE6=Hasosora
TTITLE7=Baovola
TTITLE8=Blues Song
TTITLE9=Mosera
EXTD=YEAR: 2013
EXTT0=
EXTT1=
EXTT2=
EXTT3=
EXTT4=
EXTT5=
EXTT6=
EXTT7=
EXTT8=
EXTT9=
PLAYORDER=
